<?xml version="1.0" encoding="utf-8"?>
<!-- Generator: Adobe Illustrator 27.0.0, SVG Export Plug-In . SVG Version: 6.00 Build 0)  -->
<svg version="1.1" id="レイヤー_1" xmlns="http://www.w3.org/2000/svg" xmlns:xlink="http://www.w3.org/1999/xlink" x="0px"
	 y="0px" viewBox="0 0 391 127" style="enable-background:new 0 0 391 127;" xml:space="preserve">
<style type="text/css">
	.st0{enable-background:new    ;}
</style>
<g class="st0">
	<path d="M37.3,90.5c0,0.5-0.2,0.7-0.6,0.7h-7.2c-0.4,0-0.5-0.3-0.5-0.7V25.8c0-0.4,0.1-0.6,0.6-0.6h36.6c0.4,0,0.6,0.2,0.7,0.6
		l0.7,6.3c0.1,0.5-0.1,0.7-0.6,0.7H37.3v22.1h26.6c0.5,0,0.7,0.2,0.7,0.6v6.4c0,0.4-0.3,0.6-0.7,0.6H37.3V90.5z"/>
	<path d="M107,82.7c0,1.7,0,3.2,0.2,4.8c0,0.2,0,0.3-0.2,0.4c-7.2,3.4-12.9,4.3-18.7,4.3c-10.6,0-18.6-5.2-18.6-15.7
		c0-10.6,9.9-15.3,22.3-15.3c3.7,0,5.8,0.1,6.9,0.2v-2.4c0-3.1-1.5-10-11.3-10c-4.8,0-9.2,1.1-12.7,3c-0.3,0.1-0.7,0-0.7-0.5v-6.1
		c0-0.4,0.2-0.6,0.5-0.8c3.9-1.9,8.9-3,14.2-3c12.8,0,18.1,8.4,18.1,18.8V82.7z M98.9,68.1c-1.4-0.2-3.6-0.4-6.6-0.4
		c-9.7,0-14.4,3.3-14.4,8.9c0,4.5,3.1,8.9,11.9,8.9c3.2,0,6.2-0.5,9.1-1.7V68.1z"/>
	<path d="M134,48.6c-6.6,0-8.8,3.2-8.8,6.2c0,3,1.8,5.1,9.3,8.1c10.1,3.9,14.2,8,14.2,15.1c0,9.2-7.5,14.3-17.9,14.3
		c-5.5,0-10.5-1.2-13.4-2.9c-0.3-0.2-0.5-0.4-0.5-0.9v-6.7c0-0.5,0.3-0.7,0.6-0.5c4,2.8,9.1,4,13.5,4c6.4,0,9.5-2.8,9.5-6.5
		s-2.2-5.9-9.1-8.6c-10-3.8-14.2-7.9-14.2-15c0-7.2,6.1-13.5,17-13.5c5.5,0,9.6,1,11.7,2.2c0.5,0.2,0.5,0.6,0.5,1V51
		c0,0.5-0.3,0.8-0.8,0.5C142.8,49.8,138.2,48.6,134,48.6z"/>
	<path d="M180.4,89.8c0,0.4-0.1,0.8-0.6,1c-2.3,1-4.8,1.4-7.5,1.4c-7.3,0-11.7-3.5-11.7-13.1V49.9h-6.8c-0.6-0.1-0.7-0.3-0.7-0.8
		v-5.7c0-0.5,0.2-0.7,0.7-0.7h6.8c0.1-3.7,0.5-10.6,0.9-12.8c0.1-0.4,0.3-0.6,0.7-0.7l6.8-1.1c0.4-0.1,0.6,0,0.6,0.4
		c-0.3,3.5-0.6,9.3-0.6,14.2h10.6c0.4,0,0.6,0.2,0.6,0.7v5.9c0,0.4-0.2,0.6-0.6,0.6H169v28.1c0,4.6,1.7,7.2,6.1,7.2
		c1.5,0,3-0.2,4.7-0.8c0.3-0.1,0.6-0.1,0.6,0.4V89.8z"/>
</g>
<g class="st0">
	<path d="M193.4,25.8c0-0.5,0-0.7,0.5-0.8c3.7-0.1,11.5-0.3,17.3-0.3c20,0,22.8,11.1,22.8,17.1c0,7.6-4.3,11.9-7.1,13.8
		c4.1,1.8,10.5,6.3,10.5,15.8c0,13.2-11.5,19.8-26.6,19.8c-6.8,0-13-0.1-16.8-0.2c-0.5-0.1-0.6-0.3-0.6-0.7V25.8z M201.6,52.4h9.3
		c3.9,0,7.8,0.3,9.4,0.6c2.9-1.9,5.5-5,5.5-10.2c0-7.5-5.5-11-15.1-11c-3.3,0-7.2,0.1-9.1,0.2V52.4z M201.6,83.7
		c2.2,0.1,5.4,0.2,8.5,0.2c11.1,0.2,18.7-3.8,18.7-12.4c0-5.4-3-9.5-9.1-11.1c-2.2-0.6-5-0.7-7.9-0.7h-10.2V83.7z"/>
	<path d="M247.7,19.9c0-0.5,0.2-0.6,0.7-0.6h7c0.5,0,0.6,0.2,0.6,0.6v60.2c0,3.9,1.6,4.8,4,4.8c0.7,0,1.1-0.1,2-0.3
		c0.3,0,0.4,0.2,0.4,0.6v5.2c0,0.5-0.1,0.6-0.5,0.8c-0.9,0.4-2.5,0.7-4.6,0.7c-4.9,0-9.6-1.7-9.6-11.1V19.9z"/>
	<path d="M314,66.5c0,15.2-9.4,25.4-22.8,25.4c-16.1,0-23-13-23-25.3c0-14.1,9-25.3,23-25.3C305.3,41.4,314,52.1,314,66.5z
		 M276.7,66.4c0,10.2,5.3,18.3,14.8,18.3c7.1,0,14.1-5.6,14.1-18c0-9.3-4.3-18.2-14.7-18.2C282.5,48.5,276.7,55.7,276.7,66.4z"/>
	<path d="M346.4,82.7c12.4,0.6,19.4,5.1,19.4,13.9c0,10-9.5,17.9-24.2,17.9c-14.8,0-22.1-7.8-22.1-15.2c0-3.4,2.9-7.9,9.8-13.7
		c-1.6-2.2-2.4-4.8-2.4-7.5c0-2.2,0.6-4.4,1.7-6.3c-4.1-2.7-6.8-7.2-6.8-13.5c0-9.3,6.9-17,18.7-17c3.1,0,5.7,0.4,7.5,0.8
		c0.9,0.2,1.5,0.2,2.1,0.2h14.1c0.5,0,0.6,0.2,0.6,0.6v5.7c0,0.4-0.1,0.6-0.6,0.6c-2.6,0-6.8-0.2-9.2-0.4c1.8,1.9,3.5,5.1,3.5,9.7
		c0,11-8.2,16.5-18.1,16.5c-1.9,0-3.7-0.2-5.5-0.6c-0.5,1.2-0.7,2.5-0.5,3.7c0.2,1.5,0.8,2.9,1.8,4.1L346.4,82.7z M334.1,89.4
		c-4.1,2.9-6.7,7.1-6.7,9.3c0,4.6,5.5,9.3,14.7,9.3c11,0,15.9-5.2,15.9-10.2c0-5.9-6.2-7.5-13.3-7.9L334.1,89.4z M330,58.2
		c0,6.1,3.6,10.5,10.3,10.5c6.3,0,10.2-3.8,10.2-10.3c0-5.8-3.1-10.7-10.1-10.7C334.1,47.7,330,51.8,330,58.2z"/>
</g>
</svg>
